<svg width="672" height="475" viewBox="0 0 672 475" fill="none" xmlns="http://www.w3.org/2000/svg">
<path d="M12.2246 369.485H654.924" stroke="#402743" stroke-linecap="round" stroke-linejoin="round"/>
<path d="M527.137 111.022V373.806H621.914V111.022H527.137ZM614.493 366.243H534.557V118.617H614.493V366.243Z" fill="#402743" stroke="#402743" stroke-linecap="round" stroke-linejoin="round"/>
<path d="M550.763 142.002H544.66L541.617 166.226H553.805L550.763 142.002Z" fill="white" stroke="#402743" stroke-linecap="round" stroke-linejoin="round"/>
<path d="M551.726 135.34H543.693L544.621 142.199H550.798L551.726 135.34Z" fill="white" stroke="#402743" stroke-linecap="round" stroke-linejoin="round"/>
<path d="M567.568 167.054C573.044 167.054 577.483 162.096 577.483 155.979C577.483 149.862 573.044 144.903 567.568 144.903C562.092 144.903 557.652 149.862 557.652 155.979C557.652 162.096 562.092 167.054 567.568 167.054Z" fill="white" stroke="#402743" stroke-linecap="round" stroke-linejoin="round"/>
<path d="M610.607 201.619H578.773V237.903H610.607V201.619Z" fill="white" stroke="#402743" stroke-linecap="round" stroke-linejoin="round"/>
<path d="M605.078 207.918H584.301V231.603H605.078V207.918Z" fill="white" stroke="#402743" stroke-linecap="round" stroke-linejoin="round"/>
<path d="M543.34 204.551H535.465V237.54H543.34V204.551Z" fill="white" stroke="#402743" stroke-linecap="round" stroke-linejoin="round"/>
<path d="M551.541 204.551H543.666V237.54H551.541V204.551Z" fill="white" stroke="#402743" stroke-linecap="round" stroke-linejoin="round"/>
<path d="M559.814 203.98L552.084 205.657L557.714 238.041L565.445 236.364L559.814 203.98Z" fill="white" stroke="#402743" stroke-linecap="round" stroke-linejoin="round"/>
<path d="M604.959 366.15H612.834V333.161H604.959V366.15Z" fill="white" stroke="#402743" stroke-linecap="round" stroke-linejoin="round"/>
<path d="M596.768 366.15H604.643V333.161H596.768V366.15Z" fill="white" stroke="#402743" stroke-linecap="round" stroke-linejoin="round"/>
<path d="M582.885 364.978L590.615 366.655L596.245 334.271L588.515 332.594L582.885 364.978Z" fill="white" stroke="#402743" stroke-linecap="round" stroke-linejoin="round"/>
<path d="M575.321 308.616C580.561 308.616 584.81 301.105 584.81 291.841C584.81 282.577 580.561 275.067 575.321 275.067C570.08 275.067 565.832 282.577 565.832 291.841C565.832 301.105 570.08 308.616 575.321 308.616Z" fill="white" stroke="#402743" stroke-linecap="round" stroke-linejoin="round"/>
<path d="M579.034 271.803C579.33 268.809 581.714 257.184 581.714 257.184H568.914C568.914 257.184 571.298 268.809 571.595 271.803C571.713 273.777 571.296 275.744 570.398 277.45L575.314 282.278L580.221 277.45C579.328 275.743 578.914 273.775 579.034 271.803Z" fill="white" stroke="#402743" stroke-linecap="round" stroke-linejoin="round"/>
<path d="M614.495 166.702H534.559V176.348H614.495V166.702Z" fill="#402743" stroke="#402743" stroke-linecap="round" stroke-linejoin="round"/>
<path d="M614.495 237.913H534.559V247.559H614.495V237.913Z" fill="#402743" stroke="#402743" stroke-linecap="round" stroke-linejoin="round"/>
<path d="M614.495 309.113H534.559V318.759H614.495V309.113Z" fill="#402743" stroke="#402743" stroke-linecap="round" stroke-linejoin="round"/>
<path d="M117.522 56.1821H73.1855V119.85H117.522V56.1821Z" stroke="#402743" stroke-linecap="round" stroke-linejoin="round"/>
<path d="M114.655 60.2952H76.0508V115.747H114.655V60.2952Z" stroke="#402743" stroke-linecap="round" stroke-linejoin="round"/>
<path d="M101.585 79.0696H89.1191V96.9732H101.585V79.0696Z" stroke="#402743" stroke-linecap="round" stroke-linejoin="round"/>
<path d="M65.1337 103.78H20.7969V167.448H65.1337V103.78Z" stroke="#402743" stroke-linecap="round" stroke-linejoin="round"/>
<path d="M62.2589 107.893H23.6543V163.345H62.2589V107.893Z" stroke="#402743" stroke-linecap="round" stroke-linejoin="round"/>
<path d="M49.1987 126.667H36.7324V144.571H49.1987V126.667Z" stroke="#402743" stroke-linecap="round" stroke-linejoin="round"/>
<path d="M174.241 103.78H129.904V167.448H174.241V103.78Z" stroke="#402743" stroke-linecap="round" stroke-linejoin="round"/>
<path d="M171.364 107.893H132.76V163.345H171.364V107.893Z" stroke="#402743" stroke-linecap="round" stroke-linejoin="round"/>
<path d="M158.306 126.667H145.84V144.571H158.306V126.667Z" stroke="#402743" stroke-linecap="round" stroke-linejoin="round"/>
<path d="M117.522 129.879H73.1855V167.075H117.522V129.879Z" stroke="#402743" stroke-linecap="round" stroke-linejoin="round"/>
<path d="M114.655 132.283H76.0508V164.671H114.655V132.283Z" stroke="#402743" stroke-linecap="round" stroke-linejoin="round"/>
<path d="M101.585 143.245H89.1191V153.699H101.585V143.245Z" stroke="#402743" stroke-linecap="round" stroke-linejoin="round"/>
<path d="M122.16 211.202V179.166H100.613V211.202H122.16Z" stroke="#402743" stroke-linecap="round" stroke-linejoin="round"/>
<path d="M120.768 209.129V181.228H102.003V209.129H120.768Z" stroke="#402743" stroke-linecap="round" stroke-linejoin="round"/>
<path d="M114.424 199.68V190.677H108.367V199.68H114.424Z" stroke="#402743" stroke-linecap="round" stroke-linejoin="round"/>
<path d="M90.3164 211.192V179.156H68.7694V211.192H90.3164Z" stroke="#402743" stroke-linecap="round" stroke-linejoin="round"/>
<path d="M88.9258 209.129V181.228H70.1615V209.129H88.9258Z" stroke="#402743" stroke-linecap="round" stroke-linejoin="round"/>
<path d="M82.5801 199.68V190.677H76.5232V199.68H82.5801Z" stroke="#402743" stroke-linecap="round" stroke-linejoin="round"/>
<path d="M382.468 82.7268H270.271V255.226H382.468V82.7268Z" fill="#402743" stroke="#402743" stroke-linecap="round" stroke-linejoin="round"/>
<path d="M377.115 90.4143H275.613V247.527H377.115V90.4143Z" fill="white" stroke="#402743" stroke-linecap="round" stroke-linejoin="round"/>
<path d="M337.064 114.741L312.039 142.706" stroke="#402743" stroke-linecap="round" stroke-linejoin="round"/>
<path d="M350.142 100.133L339.568 111.945" stroke="#402743" stroke-linecap="round" stroke-linejoin="round"/>
<path d="M320.099 123.746L305.082 140.53" stroke="#402743" stroke-linecap="round" stroke-linejoin="round"/>
<path d="M316.482 234.048L312.039 239.021" stroke="#402743" stroke-linecap="round" stroke-linejoin="round"/>
<path d="M350.143 196.448L318.986 231.25" stroke="#402743" stroke-linecap="round" stroke-linejoin="round"/>
<path d="M320.099 220.061L305.082 236.845" stroke="#402743" stroke-linecap="round" stroke-linejoin="round"/>
<path d="M330.088 175.447C330.086 174.699 329.886 173.969 329.512 173.348C329.139 172.728 328.61 172.245 327.991 171.96C327.372 171.676 326.692 171.602 326.036 171.749C325.38 171.896 324.777 172.257 324.305 172.787C323.832 173.316 323.511 173.99 323.381 174.723C323.251 175.456 323.318 176.216 323.575 176.907C323.832 177.597 324.265 178.187 324.822 178.602C325.379 179.017 326.033 179.239 326.702 179.239C327.601 179.236 328.462 178.835 329.096 178.124C329.731 177.414 330.088 176.451 330.088 175.447Z" fill="#402743" stroke="#402743" stroke-linecap="round" stroke-linejoin="round"/>
<path d="M377.115 174.866H275.613V181.819H377.115V174.866Z" fill="#402743" stroke="#402743" stroke-linecap="round" stroke-linejoin="round"/>
<path d="M385.769 72.3967H267.637V87.1403H385.769V72.3967Z" fill="#402743" stroke="#402743" stroke-linecap="round" stroke-linejoin="round"/>
<path d="M385.769 250.066H267.637V264.81H385.769V250.066Z" fill="#402743" stroke="#402743" stroke-linecap="round" stroke-linejoin="round"/>
<path d="M427.343 51.7581H225.396V56.1822H427.343V51.7581Z" fill="white" stroke="#402743" stroke-linecap="round" stroke-linejoin="round"/>
<path d="M239.719 48.0693H236.825C234.525 48.0693 232.66 50.1521 232.66 52.7214V276.372C232.66 278.941 234.525 281.024 236.825 281.024H239.719C242.019 281.024 243.884 278.941 243.884 276.372V52.7214C243.884 50.1521 242.019 48.0693 239.719 48.0693Z" fill="white" stroke="#402743" stroke-linecap="round" stroke-linejoin="round"/>
<path d="M250.273 48.0693H247.38C245.079 48.0693 243.215 50.1521 243.215 52.7214V276.372C243.215 278.941 245.079 281.024 247.38 281.024H250.273C252.574 281.024 254.438 278.941 254.438 276.372V52.7214C254.438 50.1521 252.574 48.0693 250.273 48.0693Z" fill="white" stroke="#402743" stroke-linecap="round" stroke-linejoin="round"/>
<path d="M260.828 48.0693H257.934C255.634 48.0693 253.77 50.1521 253.77 52.7214V276.372C253.77 278.941 255.634 281.024 257.934 281.024H260.828C263.128 281.024 264.993 278.941 264.993 276.372V52.7214C264.993 50.1521 263.128 48.0693 260.828 48.0693Z" fill="white" stroke="#402743" stroke-linecap="round" stroke-linejoin="round"/>
<path d="M271.395 48.0693H268.501C266.201 48.0693 264.336 50.1521 264.336 52.7214V276.372C264.336 278.941 266.201 281.024 268.501 281.024H271.395C273.695 281.024 275.559 278.941 275.559 276.372V52.7214C275.559 50.1521 273.695 48.0693 271.395 48.0693Z" fill="white" stroke="#402743" stroke-linecap="round" stroke-linejoin="round"/>
<path d="M384.908 48.0693H382.014C379.714 48.0693 377.85 50.1521 377.85 52.7214V276.372C377.85 278.941 379.714 281.024 382.014 281.024H384.908C387.208 281.024 389.073 278.941 389.073 276.372V52.7214C389.073 50.1521 387.208 48.0693 384.908 48.0693Z" fill="white" stroke="#402743" stroke-linecap="round" stroke-linejoin="round"/>
<path d="M395.463 48.0693H392.569C390.269 48.0693 388.404 50.1521 388.404 52.7214V276.372C388.404 278.941 390.269 281.024 392.569 281.024H395.463C397.763 281.024 399.628 278.941 399.628 276.372V52.7214C399.628 50.1521 397.763 48.0693 395.463 48.0693Z" fill="white" stroke="#402743" stroke-linecap="round" stroke-linejoin="round"/>
<path d="M406.027 48.0693H403.133C400.833 48.0693 398.969 50.1521 398.969 52.7214V276.372C398.969 278.941 400.833 281.024 403.133 281.024H406.027C408.328 281.024 410.192 278.941 410.192 276.372V52.7214C410.192 50.1521 408.328 48.0693 406.027 48.0693Z" fill="white" stroke="#402743" stroke-linecap="round" stroke-linejoin="round"/>
<path d="M416.584 48.0693H413.69C411.39 48.0693 409.525 50.1521 409.525 52.7214V276.372C409.525 278.941 411.39 281.024 413.69 281.024H416.584C418.884 281.024 420.749 278.941 420.749 276.372V52.7214C420.749 50.1521 418.884 48.0693 416.584 48.0693Z" fill="white" stroke="#402743" stroke-linecap="round" stroke-linejoin="round"/>
<path d="M208.158 300.669C208.158 300.669 209.503 258.055 213.9 256.915C218.296 255.775 229.77 259.94 266.584 258.428C303.399 256.915 322.989 258.055 324.343 259.184C325.697 260.313 330.418 324.074 328.396 324.831C326.374 325.587 284.152 320.686 266.584 321.059C249.017 321.432 213.556 324.831 210.523 324.074C207.49 323.318 208.158 300.669 208.158 300.669Z" fill="#FF897D" stroke="#402743" stroke-linecap="round" stroke-linejoin="round"/>
<path d="M443.339 300.669C443.339 300.669 441.984 258.055 437.597 256.915C433.21 255.775 421.727 259.94 384.912 258.428C348.098 256.915 328.508 258.055 327.154 259.184C325.8 260.313 326.384 324.074 328.415 324.831C330.447 325.587 367.372 320.686 384.912 321.059C402.452 321.432 437.94 324.831 440.973 324.074C444.007 323.318 443.339 300.669 443.339 300.669Z" fill="#FF897D" stroke="#402743" stroke-linecap="round" stroke-linejoin="round"/>
<path d="M449.654 366.699H208.51V384.053H449.654V366.699Z" fill="#FF897D" stroke="#402743" stroke-linecap="round" stroke-linejoin="round"/>
<path d="M330.214 320.676H208.51V350.629H330.214V320.676Z" fill="#FF897D" stroke="#402743" stroke-linecap="round" stroke-linejoin="round"/>
<path d="M448.765 320.676H329.779V350.629H448.765V320.676Z" fill="#FF897D" stroke="#402743" stroke-linecap="round" stroke-linejoin="round"/>
<path d="M330.214 337.657H208.51V367.611H330.214V337.657Z" fill="#FF897D" stroke="#402743" stroke-linecap="round" stroke-linejoin="round"/>
<path d="M448.765 337.657H329.779V367.611H448.765V337.657Z" fill="#FF897D" stroke="#402743" stroke-linecap="round" stroke-linejoin="round"/>
<path d="M247.159 265.214C247.159 265.214 235.667 275.772 224.898 276.155C214.129 276.539 209.361 273.513 202.943 277.285C196.524 281.056 214.435 323.691 220.51 325.981C226.586 328.271 259.013 319.941 262.723 318.438C266.433 316.936 254.282 279.575 252.594 273.544C250.906 267.514 250.869 263.329 247.159 265.214Z" fill="#402743" stroke="#402743" stroke-linecap="round" stroke-linejoin="round"/>
<path d="M264.914 278.797C264.914 278.797 253.097 274.652 251.409 275.782C249.721 276.911 253.765 299.177 254.785 305.207C255.806 311.237 253.765 319.919 255.796 321.059C257.828 322.199 297.675 323.691 303.101 322.945C308.527 322.199 297.36 289.365 296.339 279.936C295.319 270.508 296.006 271.648 291.952 273.14C287.899 274.632 274.013 278.797 264.914 278.797Z" fill="white" stroke="#402743" stroke-linecap="round" stroke-linejoin="round"/>
<path d="M404.724 265.214C404.724 265.214 416.207 275.772 426.985 276.155C437.763 276.539 442.522 273.513 448.94 277.285C455.359 281.056 437.457 323.691 431.372 325.981C425.288 328.271 392.87 319.941 389.16 318.438C385.449 316.936 397.6 279.575 399.289 273.544C400.977 267.514 401.005 263.329 404.724 265.214Z" fill="#402743" stroke="#402743" stroke-linecap="round" stroke-linejoin="round"/>
<path d="M386.962 278.797C386.962 278.797 398.788 274.652 400.476 275.782C402.164 276.911 398.111 299.177 397.1 305.207C396.089 311.237 398.111 319.919 396.08 321.059C394.048 322.199 354.201 323.691 348.775 322.945C343.349 322.199 354.516 289.365 355.527 279.936C356.538 270.508 355.861 271.648 359.915 273.14C363.968 274.632 377.844 278.797 386.962 278.797Z" fill="white" stroke="#402743" stroke-linecap="round" stroke-linejoin="round"/>
<path d="M200.097 295.395H207.23C208.482 295.395 209.683 295.951 210.568 296.94C211.454 297.929 211.951 299.27 211.951 300.669V391.275C211.951 392.462 211.529 393.6 210.778 394.44C210.026 395.279 209.007 395.751 207.944 395.751H199.402C198.339 395.751 197.32 395.279 196.568 394.44C195.817 393.6 195.395 392.462 195.395 391.275V300.669C195.395 299.274 195.889 297.935 196.771 296.947C197.652 295.959 198.848 295.401 200.097 295.395Z" fill="#FF897D" stroke="#402743" stroke-linecap="round" stroke-linejoin="round"/>
<path d="M446.539 295.395H453.644C454.896 295.395 456.097 295.951 456.983 296.94C457.868 297.929 458.365 299.27 458.365 300.669V391.275C458.365 392.462 457.943 393.6 457.192 394.44C456.44 395.279 455.421 395.751 454.358 395.751H445.816C444.753 395.751 443.734 395.279 442.982 394.44C442.231 393.6 441.809 392.462 441.809 391.275V300.669C441.809 299.975 441.931 299.289 442.169 298.648C442.407 298.008 442.755 297.426 443.195 296.936C443.634 296.446 444.156 296.058 444.73 295.793C445.303 295.529 445.918 295.394 446.539 295.395Z" fill="#FF897D" stroke="#402743" stroke-linecap="round" stroke-linejoin="round"/>
<path d="M521.218 340.548C520.893 337.688 511.144 334.093 511.144 334.093L497.815 334.798L484.487 334.093C484.487 334.093 474.738 337.688 474.413 340.548C474.089 343.407 468.561 385.39 468.561 385.39C476.606 387.896 484.909 389.223 493.261 389.337H502.37C510.722 389.223 519.025 387.896 527.07 385.39C527.07 385.39 521.542 343.418 521.218 340.548Z" fill="white" stroke="#402743" stroke-linecap="round" stroke-linejoin="round"/>
<path d="M497.814 338.248C507.045 338.248 514.528 335.024 514.528 331.047C514.528 327.07 507.045 323.846 497.814 323.846C488.583 323.846 481.1 327.07 481.1 331.047C481.1 335.024 488.583 338.248 497.814 338.248Z" fill="white" stroke="#402743" stroke-linecap="round" stroke-linejoin="round"/>
<path d="M466.018 316.946L471.741 326.011C471.741 330.477 483.418 334.093 497.814 334.093C512.21 334.093 523.887 330.477 523.887 326.011L529.61 316.946H466.018Z" fill="white" stroke="#402743" stroke-linecap="round" stroke-linejoin="round"/>
<path d="M497.814 324.561C515.375 324.561 529.61 321.152 529.61 316.946C529.61 312.74 515.375 309.331 497.814 309.331C480.253 309.331 466.018 312.74 466.018 316.946C466.018 321.152 480.253 324.561 497.814 324.561Z" fill="white" stroke="#402743" stroke-linecap="round" stroke-linejoin="round"/>
<path d="M497.878 315.071L502.173 261.671L463.855 223.667" stroke="#402743" stroke-width="2" stroke-linecap="round" stroke-linejoin="round"/>
<path d="M464.329 223.988C465.002 223.483 465.567 222.818 465.982 222.041C466.398 221.263 466.654 220.392 466.732 219.491C467.093 216.383 465.711 213.689 463.652 213.389C461.593 213.088 459.636 215.326 459.274 218.393C459.14 219.286 459.185 220.201 459.406 221.072C459.628 221.943 460.02 222.748 460.554 223.428C456.575 224.464 453.004 230.287 452.123 237.757C451.99 238.874 451.925 239.999 451.928 241.125L468.577 243.56C468.838 242.477 469.033 241.376 469.162 240.265C470.043 232.784 467.937 226.122 464.329 223.988Z" fill="white" stroke="#402743" stroke-linecap="round" stroke-linejoin="round"/>
<path d="M508.619 312.47H487.137V317.671H508.619V312.47Z" fill="white" stroke="#402743" stroke-linecap="round" stroke-linejoin="round"/>
<path d="M396.664 379.722L403.797 418.773H401.83L390.598 380.323L396.664 379.722Z" fill="#402743" stroke="#402743" stroke-linecap="round" stroke-linejoin="round"/>
<path d="M266.287 379.722L259.154 418.773H261.121L272.353 380.323L266.287 379.722Z" fill="#402743" stroke="#402743" stroke-linecap="round" stroke-linejoin="round"/>
<path d="M260.406 397.657L253.273 436.697H255.231L266.472 398.258L260.406 397.657Z" fill="#402743" stroke="#402743" stroke-linecap="round" stroke-linejoin="round"/>
<path d="M403.799 397.657L410.931 436.697H408.965L397.732 398.258L403.799 397.657Z" fill="#402743" stroke="#402743" stroke-linecap="round" stroke-linejoin="round"/>
<path d="M427.635 395.751L415.206 374.625H246.689L234.26 395.751H427.635Z" fill="white" stroke="#402743" stroke-linecap="round" stroke-linejoin="round"/>
<path d="M427.376 395.75H234.26V399.522H427.376V395.75Z" fill="#402743" stroke="#402743" stroke-linecap="round" stroke-linejoin="round"/>
<path d="M336.459 386.25L334.78 387.39H322.889L321.21 386.25C319.451 385.125 317.618 384.148 315.728 383.328C314.988 383.042 314.367 382.461 313.984 381.697C313.601 380.934 313.483 380.039 313.651 379.184L317.472 362.783H340.197L344.019 379.184C344.187 380.039 344.068 380.934 343.685 381.697C343.302 382.461 342.682 383.042 341.941 383.328C340.051 384.148 338.219 385.125 336.459 386.25Z" fill="white" stroke="#402743" stroke-linecap="round" stroke-linejoin="round"/>
<path d="M334.778 387.389H322.887C321.588 387.389 320.623 384.809 320.902 382.095L322.896 362.803H334.768L336.763 382.095C337.087 384.809 336.076 387.389 334.778 387.389Z" fill="white" stroke="#402743" stroke-linecap="round" stroke-linejoin="round"/>
<path d="M317.47 362.803L313.973 356.959L320.577 360.959L321.402 355.726L323.332 356.348L321.95 350.505L327.459 355.115L331.587 345.283L332.412 355.426L337.634 352.349L336.262 356.959L342.309 354.193L339.007 359.415L341.762 359.726L340.195 362.803H317.47Z" fill="#402743" stroke="#402743" stroke-linecap="round" stroke-linejoin="round"/>
<path d="M138.687 239.011C138.693 239.005 138.698 238.998 138.701 238.99C138.704 238.981 138.706 238.973 138.706 238.964C138.706 238.955 138.704 238.946 138.701 238.938C138.698 238.93 138.693 238.923 138.687 238.917C138.674 238.906 138.657 238.899 138.641 238.899C138.624 238.899 138.607 238.906 138.594 238.917C136.671 244.081 135.147 249.419 134.04 254.873C132.918 260.341 132.079 265.876 131.526 271.451L131.164 275.595C131.118 276.289 131.044 276.983 130.997 277.667L130.895 279.739C130.895 281.138 130.766 282.537 130.729 283.935V288.142L130.775 290.214C130.775 290.908 130.84 291.613 130.886 292.286C130.979 293.685 131.053 295.084 131.174 296.431C131.415 299.218 131.786 301.995 132.175 304.719C132.178 304.737 132.186 304.753 132.197 304.764C132.209 304.776 132.225 304.782 132.24 304.782C132.258 304.782 132.274 304.774 132.286 304.76C132.299 304.747 132.305 304.728 132.305 304.709C132.305 303.31 132.24 301.922 132.213 300.565C132.185 299.207 132.073 297.788 132.092 296.42C132.111 295.053 132.092 293.644 132.046 292.276V290.204V288.132V283.987L132.148 279.843V277.771C132.148 277.077 132.222 276.382 132.25 275.699L132.482 271.554C132.905 266.016 133.608 260.509 134.587 255.06C135.538 249.588 136.91 244.219 138.687 239.011Z" fill="#402743"/>
<path d="M139.226 260.789C139.229 260.78 139.23 260.77 139.229 260.76C139.228 260.75 139.225 260.74 139.221 260.731C139.217 260.723 139.211 260.715 139.204 260.709C139.196 260.703 139.188 260.698 139.18 260.696C139.18 260.696 139.115 260.696 139.096 260.696C136.969 267.651 135.556 274.853 134.885 282.164C134.56 285.801 134.189 289.416 134.152 293.115C134.067 296.784 134.182 300.455 134.495 304.108C134.495 304.125 134.501 304.141 134.512 304.152C134.522 304.164 134.536 304.17 134.551 304.17C134.551 304.17 134.625 304.17 134.625 304.108C135.006 300.461 135.237 296.856 135.46 293.177C135.683 289.499 135.729 285.925 135.942 282.257C136.149 278.627 136.536 275.012 137.102 271.43C137.634 267.842 138.343 264.29 139.226 260.789Z" fill="#402743"/>
<path d="M150.031 268.446C150.018 268.434 150.001 268.427 149.984 268.427C149.967 268.427 149.951 268.434 149.938 268.446C147.233 270.382 144.798 272.752 142.712 275.481C141.661 276.851 140.715 278.317 139.883 279.863L139.308 281.096L138.854 282.36C138.699 282.783 138.566 283.216 138.455 283.655C138.344 284.091 138.204 284.515 138.102 284.951C137.277 288.444 136.777 292.024 136.609 295.633C136.446 299.212 136.567 302.801 136.971 306.356C136.971 306.375 136.978 306.394 136.99 306.408C137.002 306.421 137.019 306.429 137.036 306.429C137.053 306.429 137.069 306.421 137.082 306.408C137.094 306.394 137.101 306.375 137.101 306.356L137.926 295.736C138.151 292.226 138.551 288.733 139.123 285.272C139.215 284.847 139.327 284.422 139.42 283.997C139.512 283.573 139.614 283.158 139.753 282.754L140.134 281.521L140.635 280.361C141.387 278.81 142.255 277.333 143.232 275.947C145.158 273.129 147.446 270.643 150.021 268.57C150.032 268.564 150.04 268.556 150.047 268.546C150.053 268.535 150.057 268.523 150.058 268.511C150.059 268.498 150.057 268.486 150.052 268.474C150.047 268.463 150.04 268.453 150.031 268.446Z" fill="#402743"/>
<path d="M144.8 282.081C143.396 283.226 142.268 284.743 141.517 286.495C140.724 288.217 140.102 290.03 139.661 291.903C139.533 292.362 139.428 292.829 139.346 293.302L139.04 294.711C138.884 295.66 138.779 296.618 138.725 297.581C138.725 298.544 138.725 299.508 138.725 300.472C138.793 301.431 138.907 302.386 139.068 303.331C139.072 303.346 139.079 303.359 139.089 303.37C139.098 303.381 139.11 303.389 139.123 303.393C139.123 303.393 139.188 303.393 139.198 303.331C139.398 302.402 139.549 301.461 139.652 300.513C139.791 299.58 139.921 298.648 140.014 297.716C140.107 296.783 140.246 295.871 140.311 294.939C140.376 294.006 140.487 293.074 140.672 292.172C140.959 290.333 141.432 288.536 142.082 286.816C142.669 285.054 143.623 283.474 144.865 282.205C144.876 282.191 144.881 282.172 144.881 282.153C144.881 282.135 144.876 282.116 144.865 282.102C144.856 282.093 144.846 282.086 144.835 282.083C144.823 282.079 144.812 282.078 144.8 282.081Z" fill="#402743"/>
<path d="M129.644 292.722C129.291 288.007 128.596 283.335 127.937 278.672C127.278 274.01 126.546 269.347 125.785 264.716C125.024 260.085 124.171 255.453 123.271 250.843C123.261 250.834 123.248 250.83 123.234 250.83C123.221 250.83 123.208 250.834 123.197 250.843C123.197 250.843 123.132 250.843 123.142 250.926C123.865 255.578 124.514 260.251 125.136 264.892C125.757 269.534 126.36 274.217 126.889 278.89C127.418 283.563 127.816 288.215 128.336 292.918L129.876 306.947C129.876 306.947 129.876 307.02 129.94 307.02C129.958 307.02 129.974 307.012 129.986 306.998C129.999 306.985 130.005 306.966 130.005 306.947C130.061 305.766 130.061 304.585 130.089 303.393C130.117 302.202 130.042 301.031 130.024 299.85C129.987 297.425 129.801 295.074 129.644 292.722Z" fill="#402743"/>
<path d="M127.111 292.649C126.888 290.784 126.582 288.93 126.258 287.075L125.673 284.33C125.479 283.407 125.293 282.485 125.052 281.584C124.21 277.93 123.131 274.35 121.824 270.871L121.323 269.565L120.757 268.301C120.405 267.452 119.969 266.633 119.561 265.815C118.731 264.162 117.705 262.642 116.509 261.297C116.498 261.286 116.483 261.28 116.467 261.28C116.452 261.28 116.437 261.286 116.426 261.297C116.42 261.304 116.415 261.312 116.411 261.321C116.408 261.33 116.406 261.339 116.406 261.349C116.406 261.359 116.408 261.368 116.411 261.377C116.415 261.386 116.42 261.394 116.426 261.401C117.533 262.792 118.469 264.343 119.208 266.011C119.57 266.851 119.96 267.68 120.275 268.54L120.767 269.824L121.212 271.13C122.37 274.624 123.3 278.208 123.995 281.853C124.375 283.666 124.635 285.511 124.922 287.345L125.321 290.101C125.46 291.023 125.636 291.934 125.757 292.857C126.017 294.701 126.323 296.535 126.61 298.379C126.898 300.223 127.167 302.078 127.538 303.922C127.54 303.939 127.548 303.955 127.56 303.967C127.572 303.978 127.587 303.984 127.603 303.984C127.62 303.984 127.636 303.977 127.649 303.963C127.661 303.949 127.668 303.931 127.668 303.912C127.668 302.026 127.668 300.14 127.547 298.265C127.426 296.39 127.287 294.525 127.111 292.649Z" fill="#402743"/>
<path d="M123.622 292.887C122.843 290.421 121.934 287.997 120.951 285.635C119.955 283.269 118.834 280.972 117.593 278.755C117.579 278.746 117.563 278.741 117.547 278.741C117.531 278.741 117.515 278.746 117.501 278.755C117.49 278.77 117.484 278.788 117.484 278.807C117.484 278.826 117.49 278.844 117.501 278.859C118.587 281.157 119.547 283.527 120.376 285.956C121.229 288.37 121.999 290.815 122.649 293.302C123.298 295.788 123.78 298.306 124.374 300.803C124.967 303.3 125.496 305.807 126.229 308.336C126.239 308.341 126.25 308.344 126.261 308.344C126.273 308.344 126.284 308.341 126.294 308.336C126.311 308.336 126.328 308.328 126.34 308.314C126.352 308.301 126.359 308.282 126.359 308.263C126.39 305.63 126.17 303 125.7 300.42C125.193 297.85 124.498 295.33 123.622 292.887Z" fill="#402743"/>
<path d="M123.474 301.124C123.046 299.582 122.422 298.116 121.619 296.773C120.872 295.394 119.965 294.133 118.92 293.022C118.384 292.483 117.806 291.998 117.195 291.572C116.593 291.136 115.937 290.804 115.247 290.587C115.236 290.579 115.223 290.574 115.21 290.574C115.196 290.574 115.183 290.579 115.173 290.587C115.162 290.602 115.156 290.62 115.156 290.639C115.156 290.658 115.162 290.676 115.173 290.691C116.418 291.36 117.521 292.317 118.41 293.499C119.311 294.651 120.069 295.933 120.664 297.311C121.304 298.669 121.591 300.161 122.194 301.549C122.435 302.264 122.676 302.989 122.964 303.704C123.205 304.45 123.49 305.176 123.817 305.88C123.825 305.887 123.835 305.89 123.845 305.89C123.855 305.89 123.865 305.887 123.873 305.88C123.89 305.88 123.907 305.872 123.919 305.859C123.931 305.845 123.938 305.827 123.938 305.807C123.964 305.005 123.939 304.202 123.864 303.404C123.768 302.637 123.638 301.876 123.474 301.124Z" fill="#402743"/>
<path d="M123.752 257.598C121.645 256.941 119.739 255.652 118.239 253.871C116.74 252.091 115.705 249.886 115.247 247.497C113.651 239.208 118.79 242.741 114.18 229.676C109.57 216.611 110.637 213.637 112.232 209.876C113.828 206.115 114.718 207.296 116.137 212.249C117.556 217.201 122.695 224.92 124.643 239.374C126.591 253.827 123.752 257.598 123.752 257.598Z" fill="#FF897D"/>
<path d="M137.388 243.539C137.388 243.539 132.751 241.757 132.602 232.048C132.454 222.34 135.969 224.329 136.498 212.249C137.027 200.168 137.741 191.661 139.689 191.454C141.637 191.247 146.784 197.401 148.556 210.86C150.328 224.319 146.256 233.24 142.703 237.198C139.151 241.156 137.388 243.539 137.388 243.539Z" fill="#FF897D"/>
<path d="M121.259 269.275C121.259 269.275 120.192 262.147 118.068 258.78C115.944 255.412 111.334 252.449 108.319 245.911C105.305 239.374 101.938 236.214 102.114 245.518C102.29 254.822 106.01 259.577 110.62 262.738C115.23 265.898 121.259 269.275 121.259 269.275Z" fill="#FF897D"/>
<path d="M119.31 281.553C116.494 275.758 112.973 270.427 108.847 265.711C102.642 258.977 97.7168 255.609 99.4514 258.977C101.186 262.344 103.356 262.147 106.371 268.084C109.385 274.021 108.495 278.383 112.752 281.75C117.01 285.117 119.31 281.553 119.31 281.553Z" fill="#FF897D"/>
<path d="M118.772 293.24C118.596 292.639 118.42 288.287 112.391 284.723C106.362 281.159 100.694 282.547 101.399 284.33C102.104 286.112 105.833 289.075 109.562 290.857C112.53 292.08 115.625 292.881 118.772 293.24Z" fill="#FF897D"/>
<path d="M137.036 269.668C137.036 269.668 134.374 265.907 135.794 257.992C137.213 250.076 140.431 252.045 143.947 247.89C147.462 243.735 146.785 243.134 150.328 238.783C153.871 234.431 157.062 232.048 158.481 233.83C159.901 235.612 157.776 241.155 155.643 244.326C153.51 247.496 150.152 249.081 148.557 253.039C146.961 256.997 147.629 263.338 143.594 266.301C139.559 269.264 137.036 269.668 137.036 269.668Z" fill="#FF897D"/>
<path d="M145.895 271.855C145.895 271.855 152.276 263.732 156.886 257.795C161.496 251.858 163.268 247.299 163.444 251.257C163.62 255.215 165.039 258.385 161.32 263.535C157.6 268.684 145.895 271.855 145.895 271.855Z" fill="#FF897D"/>
<path d="M142.526 284.92C142.526 284.92 142.349 281.75 152.45 274.424C162.551 267.099 166.809 265.711 165.751 268.685C164.694 271.658 160.251 274.621 155.465 279.968C150.679 285.314 142.526 284.92 142.526 284.92Z" fill="#FF897D"/>
<path d="M124.161 256.749C124.161 256.749 121.786 242.544 119.31 232.442C116.833 222.34 115.229 216.206 115.229 216.206" stroke="#402743" stroke-linecap="round" stroke-linejoin="round"/>
<path d="M136.98 243.684C136.98 243.684 141.284 228.287 142.703 218.963C144.123 209.638 142.527 202.727 141.776 198.562" stroke="#402743" stroke-linecap="round" stroke-linejoin="round"/>
<path d="M120.7 268.975C118.786 265.32 116.599 261.854 114.16 258.614C110.265 253.433 107.25 250.698 105.479 245.745" stroke="#402743" stroke-linecap="round" stroke-linejoin="round"/>
<path d="M137.035 269.669C137.035 269.669 138.454 260.168 141.821 255.215C145.188 250.263 151.922 242.544 154.584 237.602" stroke="#402743" stroke-linecap="round" stroke-linejoin="round"/>
<path d="M118.355 293.022C118.355 293.022 112.391 288.681 108.152 286.309" stroke="#402743" stroke-linecap="round" stroke-linejoin="round"/>
<path d="M152.507 332.932C152.108 320.914 140.152 312.905 140.152 312.905H121.842C121.842 312.905 109.896 320.914 109.497 332.932C109.098 344.951 123.039 389.006 123.039 389.006H138.965C138.965 389.006 152.915 344.941 152.507 332.932Z" fill="#402743" stroke="#402743" stroke-linecap="round" stroke-linejoin="round"/>
<path d="M142.519 301.094H119.145L121.844 312.905H139.829L142.519 301.094Z" fill="#402743" stroke="#402743" stroke-linecap="round" stroke-linejoin="round"/>
</svg>
